<?xml version="1.0" standalone="no"?>
<!DOCTYPE svg PUBLIC "-//W3C//DTD SVG 20010904//EN"
 "http://www.w3.org/TR/2001/REC-SVG-20010904/DTD/svg10.dtd">
<svg version="1.0" xmlns="http://www.w3.org/2000/svg"
 width="867.000000pt" height="288.000000pt" viewBox="0 0 867.000000 288.000000"
 preserveAspectRatio="xMidYMid meet">

<g transform="translate(0.000000,288.000000) scale(0.100000,-0.100000)"
fill="#000000" stroke="none">
<path d="M2195 2230 c-3 -5 -35 -10 -71 -10 -36 0 -64 -4 -64 -10 0 -5 -20
-10 -45 -10 l-45 0 0 -770 0 -770 185 0 185 0 0 379 c0 243 4 382 10 386 6 3
10 13 10 22 0 24 58 72 103 84 52 14 127 6 162 -17 14 -9 36 -35 48 -58 21
-40 22 -52 25 -418 l3 -378 185 0 186 0 -4 445 c-2 338 -6 447 -15 457 -7 6
-13 22 -13 35 0 13 -3 23 -8 23 -4 0 -13 15 -21 33 -16 35 -92 117 -110 117
-6 0 -11 3 -11 8 0 19 -128 47 -220 47 -94 -1 -210 -26 -210 -46 0 -5 -7 -9
-15 -9 -8 0 -31 -16 -52 -35 -20 -19 -40 -32 -45 -29 -4 3 -8 124 -8 270 l0
264 -69 0 c-39 0 -73 -4 -76 -10z"/>
<path d="M7590 2230 c-8 -5 -32 -10 -53 -10 -21 0 -67 -6 -102 -12 l-65 -12
-2 -244 -3 -243 -40 30 c-22 17 -45 31 -52 31 -6 0 -13 3 -15 8 -6 14 -103 42
-169 48 -79 8 -183 -8 -248 -39 -77 -36 -156 -127 -183 -211 -48 -150 -58
-459 -20 -621 12 -53 54 -151 75 -176 9 -10 17 -22 17 -25 0 -10 49 -50 79
-66 14 -7 28 -15 31 -18 10 -10 77 -30 103 -30 14 0 28 -4 31 -8 6 -9 123 -8
133 2 3 3 17 6 30 6 31 0 103 23 103 32 0 5 9 8 20 8 11 0 20 5 20 10 0 6 5
10 10 10 6 0 25 14 43 31 25 24 33 28 35 15 2 -9 8 -16 13 -16 5 0 9 -8 9 -17
0 -10 7 -26 14 -35 12 -16 32 -18 170 -18 l156 0 0 790 0 790 -62 0 c-35 0
-70 -5 -78 -10z m-327 -706 c58 -30 76 -61 96 -170 15 -81 14 -164 -3 -249
-21 -109 -37 -135 -103 -172 -29 -17 -127 -17 -155 0 -87 48 -112 114 -112
297 1 193 28 266 111 296 52 18 128 17 166 -2z"/>
<path d="M820 2202 c0 -10 -3 -22 -7 -25 -3 -4 -18 -42 -34 -84 -52 -149 -71
-198 -80 -208 -5 -5 -9 -19 -9 -32 0 -13 -4 -23 -10 -23 -5 0 -10 -11 -10 -24
0 -14 -4 -28 -10 -31 -5 -3 -10 -15 -10 -26 0 -10 -4 -19 -8 -19 -4 0 -14 -21
-21 -47 -8 -27 -17 -52 -20 -58 -4 -5 -15 -35 -25 -65 -11 -30 -22 -59 -26
-65 -3 -5 -12 -30 -20 -55 -7 -25 -17 -49 -22 -55 -4 -5 -8 -17 -8 -27 0 -10
-4 -18 -10 -18 -5 0 -10 -9 -10 -20 0 -11 -4 -28 -9 -38 -16 -28 -101 -257
-101 -270 0 -7 -4 -12 -10 -12 -5 0 -10 -9 -10 -20 0 -11 -4 -28 -9 -38 -27
-54 -101 -250 -101 -270 0 -9 48 -12 200 -12 l200 0 6 28 c4 15 10 32 14 37 4
6 15 37 25 70 10 33 26 84 37 113 l19 52 284 0 283 0 11 -30 c15 -40 24 -69
58 -177 l28 -93 208 0 c114 0 207 3 207 8 0 12 -26 81 -33 88 -4 4 -7 18 -7
31 0 12 -4 23 -10 23 -5 0 -10 8 -10 18 0 10 -4 22 -8 28 -5 5 -15 29 -22 54
-8 25 -17 50 -21 55 -4 6 -19 44 -33 85 -24 69 -37 102 -55 140 -4 8 -14 36
-22 63 -7 26 -17 47 -21 47 -4 0 -8 10 -8 23 0 13 -4 27 -9 32 -8 10 -26 55
-79 205 -15 41 -30 77 -34 78 -5 2 -8 15 -8 28 0 13 -4 24 -8 24 -5 0 -15 23
-22 50 -7 28 -17 50 -22 50 -4 0 -8 9 -8 20 0 11 -4 28 -9 38 -15 26 -61 156
-61 170 0 6 -4 12 -8 12 -4 0 -14 21 -21 48 -8 26 -18 54 -22 62 -4 8 -14 30
-21 48 l-13 32 -202 0 c-190 0 -203 -1 -203 -18z m218 -439 c6 -16 27 -77 47
-138 20 -60 40 -118 45 -127 6 -10 10 -27 10 -37 0 -11 5 -23 10 -26 6 -3 10
-17 10 -30 0 -13 5 -27 10 -30 6 -3 10 -17 10 -30 0 -13 5 -27 10 -30 6 -3 10
-17 10 -31 l0 -24 -181 0 c-141 0 -180 3 -176 13 2 6 15 46 27 87 13 41 27 79
32 85 4 5 8 17 8 27 0 10 4 26 9 36 5 9 15 37 22 62 7 25 16 49 21 55 4 5 8
19 8 31 0 13 4 25 8 28 4 3 14 28 22 55 7 28 17 51 21 51 3 0 11 -12 17 -27z"/>
<path d="M3920 1816 c-75 -16 -122 -41 -171 -88 -22 -22 -42 -38 -43 -36 -4 6
-25 54 -38 86 l-13 32 -157 0 -158 0 0 -575 0 -575 180 0 180 0 0 358 c0 331
1 361 20 412 29 81 73 110 167 110 60 0 133 -40 133 -73 0 -9 6 -17 13 -19 9
-4 13 -94 15 -396 l4 -392 183 0 184 0 3 392 c2 302 6 392 16 396 6 2 12 11
12 19 0 42 93 79 174 69 62 -7 90 -26 118 -79 22 -41 23 -50 26 -419 l4 -378
179 0 179 0 0 432 c0 415 -1 434 -21 492 -12 34 -31 75 -43 91 -24 34 -62 75
-71 75 -3 0 -15 8 -26 19 -50 46 -216 72 -332 52 -88 -15 -150 -43 -219 -97
-57 -44 -78 -53 -78 -33 0 18 -69 76 -115 98 -83 39 -203 50 -305 27z"/>
<path d="M5655 1819 c-50 -5 -111 -15 -135 -22 -43 -12 -45 -15 -52 -57 -4
-25 -12 -72 -19 -105 -6 -33 -12 -76 -13 -95 -1 -34 0 -35 33 -32 19 2 44 8
56 12 11 4 80 13 151 20 256 24 356 -17 358 -145 l1 -40 -200 -7 c-188 -6
-216 -10 -327 -45 -10 -3 -18 -9 -18 -14 0 -5 -7 -9 -15 -9 -27 0 -115 -102
-115 -133 0 -10 -3 -17 -8 -17 -4 0 -13 -30 -20 -66 -23 -119 14 -249 94 -330
37 -38 57 -50 137 -83 63 -25 357 -8 357 21 0 5 7 8 16 8 8 0 32 16 52 35 20
19 42 35 48 35 10 0 21 -21 38 -72 5 -16 22 -18 171 -18 l165 0 -4 383 c-4
379 -9 483 -27 502 -5 5 -9 19 -9 32 0 13 -3 23 -8 23 -4 0 -13 12 -19 28 -12
25 -58 78 -97 109 -98 81 -304 109 -591 82z m385 -730 c0 -120 -48 -182 -151
-193 -81 -10 -140 1 -175 31 -26 22 -29 31 -29 87 0 103 23 115 213 116 l142
0 0 -41z"/>
<path d="M7962 1085 c-21 -24 -22 -33 -22 -245 l0 -219 38 -11 c23 -7 109 -10
234 -8 183 3 198 4 212 23 22 29 23 449 2 471 -12 11 -56 14 -228 14 l-214 0
-22 -25z"/>
</g>
</svg>
